<svg xmlns="http://www.w3.org/2000/svg" viewBox="0 0 640 560" width="640" height="560">
<rect width="640" height="560" fill="#221F1C"/>
<g transform="translate(131.9,0.0) scale(0.95)">
  <g fill="none" stroke="#EFEAE1" stroke-width="30" stroke-linecap="round">
    <circle cx="130" cy="200" r="68"/>
    <line x1="198" y1="132" x2="198" y2="268"/>
    <path d="M198,166 A34,34 0 0 1 266,166 L266,268"/>
    <path d="M266,166 A34,34 0 0 1 334,166 L334,268"/>
  </g>
</g>
<path transform="translate(167.74,392.00)" d="M1.38,-11.72 Q1.38,-15.24 2.79,-17.97 Q4.20,-20.70 6.61,-22.17 Q9.03,-23.64 12.01,-23.64 Q14.61,-23.64 16.56,-22.59 Q18.52,-21.54 19.70,-19.95 L19.70,-23.27 L25.62,-23.27 L25.62,-0.00 L19.70,-0.00 L19.70,-3.40 Q18.57,-1.77 16.57,-0.69 Q14.58,0.38 11.97,0.38 Q9.03,0.38 6.61,-1.13 Q4.20,-2.64 2.79,-5.39 Q1.38,-8.15 1.38,-11.72 Z M19.70,-11.64 Q19.70,-13.77 18.86,-15.30 Q18.02,-16.84 16.59,-17.66 Q15.16,-18.48 13.53,-18.48 Q11.88,-18.48 10.50,-17.68 Q9.12,-16.89 8.25,-15.35 Q7.39,-13.82 7.39,-11.72 Q7.39,-9.62 8.25,-8.05 Q9.12,-6.47 10.52,-5.63 Q11.93,-4.79 13.53,-4.79 Q15.16,-4.79 16.59,-5.60 Q18.02,-6.42 18.86,-7.95 Q19.70,-9.49 19.70,-11.64 Z M45.76,-23.61 Q49.92,-23.61 52.48,-20.98 Q55.05,-18.36 55.05,-13.65 L55.05,-0.00 L49.17,-0.00 L49.17,-12.85 Q49.17,-15.63 47.78,-17.11 Q46.39,-18.60 44.01,-18.60 Q41.56,-18.60 40.16,-17.11 Q38.76,-15.63 38.76,-12.85 L38.76,-0.00 L32.88,-0.00 L32.88,-23.27 L38.76,-23.27 L38.76,-20.37 Q39.93,-21.88 41.75,-22.74 Q43.59,-23.61 45.76,-23.61 Z M60.62,-11.72 Q60.62,-15.24 62.02,-17.97 Q63.43,-20.70 65.87,-22.17 Q68.30,-23.64 71.29,-23.64 Q73.55,-23.64 75.61,-22.65 Q77.67,-21.67 78.89,-20.04 L78.89,-31.08 L84.85,-31.08 L84.85,-0.00 L78.89,-0.00 L78.89,-3.45 Q77.80,-1.72 75.82,-0.67 Q73.85,0.38 71.24,0.38 Q68.30,0.38 65.87,-1.13 Q63.43,-2.64 62.02,-5.39 Q60.62,-8.15 60.62,-11.72 Z M78.93,-11.64 Q78.93,-13.77 78.09,-15.30 Q77.25,-16.84 75.82,-17.66 Q74.39,-18.48 72.76,-18.48 Q71.12,-18.48 69.73,-17.68 Q68.35,-16.89 67.48,-15.35 Q66.62,-13.82 66.62,-11.72 Q66.62,-9.62 67.48,-8.05 Q68.35,-6.47 69.75,-5.63 Q71.16,-4.79 72.76,-4.79 Q74.39,-4.79 75.82,-5.60 Q77.25,-6.42 78.09,-7.95 Q78.93,-9.49 78.93,-11.64 Z M97.99,-19.65 Q99.12,-21.51 100.94,-22.56 Q102.77,-23.61 105.13,-23.61 L105.13,-17.43 L103.57,-17.43 Q100.80,-17.43 99.39,-16.12 Q97.99,-14.82 97.99,-11.59 L97.99,-0.00 L92.11,-0.00 L92.11,-23.27 L97.99,-23.27 L97.99,-19.65 Z M132.21,-12.14 Q132.21,-10.88 132.04,-9.87 L115.03,-9.87 Q115.24,-7.35 116.79,-5.92 Q118.35,-4.50 120.61,-4.50 Q123.89,-4.50 125.28,-7.31 L131.62,-7.31 Q130.61,-3.95 127.75,-1.78 Q124.90,0.38 120.74,0.38 Q117.38,0.38 114.71,-1.11 Q112.05,-2.61 110.55,-5.34 Q109.06,-8.07 109.06,-11.64 Q109.06,-15.24 110.53,-17.97 Q112.00,-20.70 114.65,-22.17 Q117.30,-23.64 120.74,-23.64 Q124.06,-23.64 126.68,-22.21 Q129.31,-20.79 130.76,-18.16 Q132.21,-15.54 132.21,-12.14 Z M126.12,-13.82 Q126.07,-16.08 124.48,-17.45 Q122.88,-18.81 120.57,-18.81 Q118.39,-18.81 116.90,-17.49 Q115.41,-16.17 115.07,-13.82 L126.12,-13.82 Z M180.99,-23.61 Q185.28,-23.61 187.90,-20.98 Q190.53,-18.36 190.53,-13.65 L190.53,-0.00 L184.65,-0.00 L184.65,-12.85 Q184.65,-15.58 183.25,-17.03 Q181.87,-18.48 179.47,-18.48 Q177.09,-18.48 175.67,-17.03 Q174.27,-15.58 174.27,-12.85 L174.27,-0.00 L168.39,-0.00 L168.39,-12.85 Q168.39,-15.58 167.00,-17.03 Q165.61,-18.48 163.23,-18.48 Q160.78,-18.48 159.38,-17.03 Q157.98,-15.58 157.98,-12.85 L157.98,-0.00 L152.10,-0.00 L152.10,-23.27 L157.98,-23.27 L157.98,-20.46 Q159.10,-21.93 160.89,-22.77 Q162.67,-23.61 164.82,-23.61 Q167.55,-23.61 169.69,-22.45 Q171.84,-21.30 173.01,-19.15 Q174.15,-21.17 176.30,-22.38 Q178.47,-23.61 180.99,-23.61 Z M219.24,-12.14 Q219.24,-10.88 219.07,-9.87 L202.06,-9.87 Q202.27,-7.35 203.82,-5.92 Q205.38,-4.50 207.64,-4.50 Q210.92,-4.50 212.31,-7.31 L218.65,-7.31 Q217.64,-3.95 214.78,-1.78 Q211.93,0.38 207.77,0.38 Q204.41,0.38 201.74,-1.11 Q199.08,-2.61 197.58,-5.34 Q196.09,-8.07 196.09,-11.64 Q196.09,-15.24 197.56,-17.97 Q199.03,-20.70 201.68,-22.17 Q204.33,-23.64 207.77,-23.64 Q211.09,-23.64 213.71,-22.21 Q216.34,-20.79 217.79,-18.16 Q219.24,-15.54 219.24,-12.14 Z M213.15,-13.82 Q213.10,-16.08 211.51,-17.45 Q209.91,-18.81 207.60,-18.81 Q205.42,-18.81 203.93,-17.49 Q202.44,-16.17 202.10,-13.82 L213.15,-13.82 Z M230.91,-31.08 L230.91,-0.00 L225.03,-0.00 L225.03,-31.08 L230.91,-31.08 Z M248.53,0.38 Q245.17,0.38 242.48,-1.11 Q239.79,-2.61 238.26,-5.34 Q236.73,-8.07 236.73,-11.64 Q236.73,-15.21 238.31,-17.94 Q239.88,-20.67 242.61,-22.15 Q245.34,-23.64 248.70,-23.64 Q252.06,-23.64 254.79,-22.15 Q257.52,-20.67 259.10,-17.94 Q260.67,-15.21 260.67,-11.64 Q260.67,-8.07 259.05,-5.34 Q257.43,-2.61 254.68,-1.11 Q251.93,0.38 248.53,0.38 Z M248.53,-4.74 Q250.12,-4.74 251.53,-5.52 Q252.94,-6.30 253.78,-7.86 Q254.62,-9.41 254.62,-11.64 Q254.62,-14.95 252.87,-16.73 Q251.13,-18.52 248.61,-18.52 Q246.09,-18.52 244.39,-16.73 Q242.69,-14.95 242.69,-11.64 Q242.69,-8.31 244.35,-6.53 Q246.01,-4.74 248.53,-4.74 Z M279.38,-23.61 Q283.54,-23.61 286.10,-20.98 Q288.67,-18.36 288.67,-13.65 L288.67,-0.00 L282.79,-0.00 L282.79,-12.85 Q282.79,-15.63 281.40,-17.11 Q280.01,-18.60 277.62,-18.60 Q275.18,-18.60 273.78,-17.11 Q272.37,-15.63 272.37,-12.85 L272.37,-0.00 L266.49,-0.00 L266.49,-23.27 L272.37,-23.27 L272.37,-20.37 Q273.55,-21.88 275.37,-22.74 Q277.20,-23.61 279.38,-23.61 Z M298.73,-26.04 Q297.18,-26.04 296.15,-27.02 Q295.12,-28.02 295.12,-29.49 Q295.12,-30.96 296.15,-31.94 Q297.18,-32.93 298.73,-32.93 Q300.29,-32.93 301.31,-31.94 Q302.34,-30.96 302.34,-29.49 Q302.34,-28.02 301.31,-27.02 Q300.29,-26.04 298.73,-26.04 Z M301.63,-23.27 L301.63,-0.00 L295.75,-0.00 L295.75,-23.27 L301.63,-23.27 Z" fill="#EFEAE1"/>
<path transform="translate(149.88,446.00)" d="M16.17,-11.47 L12.77,-0.00 L10.64,-0.00 L8.23,-8.68 L5.68,-0.00 L3.56,0.02 L0.31,-11.47 L2.31,-11.47 L4.69,-2.13 L7.26,-11.47 L9.37,-11.47 L11.76,-2.18 L14.16,-11.47 L16.17,-11.47 Z M27.10,-9.95 L27.10,-6.58 L31.06,-6.58 L31.06,-5.05 L27.10,-5.05 L27.10,-1.53 L31.56,-1.53 L31.56,-0.00 L25.22,-0.00 L25.22,-11.48 L31.56,-11.48 L31.56,-9.95 L27.10,-9.95 Z M45.12,-11.47 Q46.95,-11.47 48.32,-10.77 Q49.70,-10.07 50.45,-8.75 Q51.20,-7.44 51.20,-5.69 Q51.20,-3.94 50.45,-2.66 Q49.70,-1.37 48.32,-0.68 Q46.95,-0.00 45.12,-0.00 L41.37,-0.00 L41.37,-11.47 L45.12,-11.47 Z M45.12,-1.53 Q47.13,-1.53 48.20,-2.62 Q49.27,-3.71 49.27,-5.69 Q49.27,-7.69 48.20,-8.81 Q47.13,-9.93 45.12,-9.93 L43.25,-9.93 L43.25,-1.53 L45.12,-1.53 Z M64.31,-11.47 Q66.15,-11.47 67.52,-10.77 Q68.90,-10.07 69.65,-8.75 Q70.40,-7.44 70.40,-5.69 Q70.40,-3.94 69.65,-2.66 Q68.90,-1.37 67.52,-0.68 Q66.15,-0.00 64.31,-0.00 L60.57,-0.00 L60.57,-11.47 L64.31,-11.47 Z M64.31,-1.53 Q66.33,-1.53 67.40,-2.62 Q68.47,-3.71 68.47,-5.69 Q68.47,-7.69 67.40,-8.81 Q66.33,-9.93 64.31,-9.93 L62.45,-9.93 L62.45,-1.53 L64.31,-1.53 Z M81.65,-11.47 L81.65,-0.00 L79.77,-0.00 L79.77,-11.47 L81.65,-11.47 Z M101.05,-0.00 L99.17,-0.00 L93.51,-8.56 L93.51,-0.00 L91.63,-0.00 L91.63,-11.48 L93.51,-11.48 L99.17,-2.94 L99.17,-11.48 L101.05,-11.48 L101.05,-0.00 Z M119.32,-8.17 Q118.87,-9.03 118.08,-9.46 Q117.29,-9.90 116.25,-9.90 Q115.11,-9.90 114.22,-9.39 Q113.33,-8.88 112.83,-7.94 Q112.33,-7.00 112.33,-5.76 Q112.33,-4.52 112.83,-3.57 Q113.33,-2.62 114.22,-2.11 Q115.11,-1.60 116.25,-1.60 Q117.79,-1.60 118.74,-2.46 Q119.70,-3.32 119.92,-4.79 L115.61,-4.79 L115.61,-6.29 L121.93,-6.29 L121.93,-4.82 Q121.75,-3.48 120.98,-2.36 Q120.21,-1.24 118.98,-0.57 Q117.75,0.10 116.25,0.10 Q114.64,0.10 113.30,-0.65 Q111.96,-1.40 111.18,-2.74 Q110.39,-4.08 110.39,-5.76 Q110.39,-7.44 111.18,-8.78 Q111.96,-10.11 113.30,-10.86 Q114.65,-11.62 116.25,-11.62 Q118.08,-11.62 119.51,-10.72 Q120.94,-9.82 121.58,-8.17 L119.32,-8.17 Z M151.74,-8.05 Q151.74,-7.18 151.33,-6.40 Q150.92,-5.63 150.01,-5.14 Q149.10,-4.65 147.68,-4.65 L145.61,-4.65 L145.61,-0.00 L143.72,-0.00 L143.72,-11.47 L147.68,-11.47 Q149.00,-11.47 149.92,-11.01 Q150.84,-10.56 151.29,-9.78 Q151.74,-9.01 151.74,-8.05 Z M147.68,-6.19 Q148.76,-6.19 149.29,-6.67 Q149.81,-7.16 149.81,-8.05 Q149.81,-9.93 147.68,-9.93 L145.61,-9.93 L145.61,-6.19 L147.68,-6.19 Z M170.20,-11.47 L170.20,-0.00 L168.32,-0.00 L168.32,-5.02 L162.92,-5.02 L162.92,-0.00 L161.04,-0.00 L161.04,-11.47 L162.92,-11.47 L162.92,-6.55 L168.32,-6.55 L168.32,-11.47 L170.20,-11.47 Z M185.41,0.12 Q183.80,0.12 182.46,-0.63 Q181.12,-1.39 180.33,-2.73 Q179.55,-4.08 179.55,-5.76 Q179.55,-7.44 180.33,-8.78 Q181.12,-10.11 182.46,-10.86 Q183.80,-11.62 185.41,-11.62 Q187.02,-11.62 188.37,-10.86 Q189.71,-10.11 190.49,-8.78 Q191.26,-7.44 191.26,-5.76 Q191.26,-4.08 190.49,-2.73 Q189.71,-1.39 188.37,-0.63 Q187.02,0.12 185.41,0.12 Z M185.41,-1.52 Q186.54,-1.52 187.43,-2.04 Q188.33,-2.56 188.83,-3.52 Q189.33,-4.49 189.33,-5.76 Q189.33,-7.03 188.83,-7.98 Q188.33,-8.94 187.43,-9.45 Q186.54,-9.97 185.41,-9.97 Q184.27,-9.97 183.37,-9.45 Q182.48,-8.94 181.98,-7.98 Q181.48,-7.03 181.48,-5.76 Q181.48,-4.49 181.98,-3.52 Q182.48,-2.56 183.37,-2.04 Q184.27,-1.52 185.41,-1.52 Z M208.02,-11.47 L208.02,-9.93 L204.97,-9.93 L204.97,-0.00 L203.09,-0.00 L203.09,-9.93 L200.02,-9.93 L200.02,-11.47 L208.02,-11.47 Z M222.65,0.12 Q221.05,0.12 219.70,-0.63 Q218.36,-1.39 217.58,-2.73 Q216.79,-4.08 216.79,-5.76 Q216.79,-7.44 217.58,-8.78 Q218.36,-10.11 219.70,-10.86 Q221.05,-11.62 222.65,-11.62 Q224.27,-11.62 225.61,-10.86 Q226.96,-10.11 227.73,-8.78 Q228.51,-7.44 228.51,-5.76 Q228.51,-4.08 227.73,-2.73 Q226.96,-1.39 225.61,-0.63 Q224.27,0.12 222.65,0.12 Z M222.65,-1.52 Q223.79,-1.52 224.68,-2.04 Q225.57,-2.56 226.07,-3.52 Q226.58,-4.49 226.58,-5.76 Q226.58,-7.03 226.07,-7.98 Q225.57,-8.94 224.68,-9.45 Q223.79,-9.97 222.65,-9.97 Q221.51,-9.97 220.62,-9.45 Q219.73,-8.94 219.23,-7.98 Q218.72,-7.03 218.72,-5.76 Q218.72,-4.49 219.23,-3.52 Q219.73,-2.56 220.62,-2.04 Q221.51,-1.52 222.65,-1.52 Z M246.15,-8.17 Q245.71,-9.03 244.92,-9.46 Q244.13,-9.90 243.09,-9.90 Q241.95,-9.90 241.06,-9.39 Q240.17,-8.88 239.66,-7.94 Q239.16,-7.00 239.16,-5.76 Q239.16,-4.52 239.66,-3.57 Q240.17,-2.62 241.06,-2.11 Q241.95,-1.60 243.09,-1.60 Q244.62,-1.60 245.58,-2.46 Q246.53,-3.32 246.75,-4.79 L242.44,-4.79 L242.44,-6.29 L248.76,-6.29 L248.76,-4.82 Q248.58,-3.48 247.81,-2.36 Q247.05,-1.24 245.82,-0.57 Q244.59,0.10 243.09,0.10 Q241.47,0.10 240.13,-0.65 Q238.80,-1.40 238.01,-2.74 Q237.23,-4.08 237.23,-5.76 Q237.23,-7.44 238.01,-8.78 Q238.80,-10.11 240.14,-10.86 Q241.49,-11.62 243.09,-11.62 Q244.92,-11.62 246.34,-10.72 Q247.77,-9.82 248.42,-8.17 L246.15,-8.17 Z M264.07,-0.00 L261.43,-4.59 L259.99,-4.59 L259.99,-0.00 L258.11,-0.00 L258.11,-11.47 L262.07,-11.47 Q263.39,-11.47 264.30,-11.01 Q265.22,-10.54 265.67,-9.77 Q266.13,-8.99 266.13,-8.04 Q266.13,-6.91 265.48,-6.00 Q264.83,-5.08 263.47,-4.75 L266.31,-0.00 L264.07,-0.00 Z M259.99,-6.09 L262.07,-6.09 Q263.13,-6.09 263.66,-6.62 Q264.20,-7.14 264.20,-8.04 Q264.20,-8.93 263.67,-9.43 Q263.14,-9.93 262.07,-9.93 L259.99,-9.93 L259.99,-6.09 Z M282.95,-2.34 L278.15,-2.34 L277.32,-0.00 L275.36,-0.00 L279.47,-11.48 L281.65,-11.48 L285.76,-0.00 L283.78,-0.00 L282.95,-2.34 Z M282.42,-3.88 L280.56,-9.21 L278.68,-3.88 L282.42,-3.88 Z M303.06,-8.05 Q303.06,-7.18 302.64,-6.40 Q302.23,-5.63 301.32,-5.14 Q300.42,-4.65 299.00,-4.65 L296.92,-4.65 L296.92,-0.00 L295.04,-0.00 L295.04,-11.47 L299.00,-11.47 Q300.32,-11.47 301.23,-11.01 Q302.15,-10.56 302.60,-9.78 Q303.06,-9.01 303.06,-8.05 Z M299.00,-6.19 Q300.07,-6.19 300.60,-6.67 Q301.13,-7.16 301.13,-8.05 Q301.13,-9.93 299.00,-9.93 L296.92,-9.93 L296.92,-6.19 L299.00,-6.19 Z M321.51,-11.47 L321.51,-0.00 L319.63,-0.00 L319.63,-5.02 L314.24,-5.02 L314.24,-0.00 L312.36,-0.00 L312.36,-11.47 L314.24,-11.47 L314.24,-6.55 L319.63,-6.55 L319.63,-11.47 L321.51,-11.47 Z M339.99,-11.47 L336.19,-4.16 L336.19,-0.00 L334.31,-0.00 L334.31,-4.16 L330.50,-11.47 L332.60,-11.47 L335.25,-5.84 L337.91,-11.47 L339.99,-11.47 Z" fill="#EFEAE1"/>
</svg>