<svg xmlns="http://www.w3.org/2000/svg" viewBox="0 0 640 800" width="640" height="800">
<rect width="640" height="800" fill="#2B2725"/>
<g transform="translate(120,55)">
  <circle cx="200" cy="200" r="178" fill="none" stroke="#F7F4EE" stroke-width="2"/>
  <circle cx="200" cy="200" r="168" fill="none" stroke="#F7F4EE" stroke-width="1" opacity="0.55"/>
  <polyline points="90,284 145,134 200,284 255,134 310,284" fill="none" stroke="#F7F4EE" stroke-width="9" stroke-linecap="round" stroke-linejoin="round"/>
  <line x1="109.4" y1="231" x2="180.6" y2="231" stroke="#B0905A" stroke-width="8" stroke-linecap="round"/>
  <path d="M200,80 C202.5,91 205,93.5 216,96 C205,98.5 202.5,101 200,112 C197.5,101 195,98.5 184,96 C195,93.5 197.5,91 200,80 Z" fill="#B0905A"/>
</g>
<path transform="translate(78.86,578.00)" d="M10.00,-14.35 L10.45,-15.25 L23.40,-15.25 L23.75,-14.35 L10.00,-14.35 Z M34.70,-0.60 Q34.90,-0.60 34.90,-0.30 Q34.90,-0.00 34.70,-0.00 Q33.30,-0.00 31.82,-0.10 Q30.35,-0.20 29.00,-0.20 Q27.45,-0.20 26.33,-0.10 Q25.20,-0.00 23.85,-0.00 Q23.65,-0.00 23.65,-0.30 Q23.65,-0.60 23.85,-0.60 Q26.65,-0.60 27.38,-1.35 Q28.10,-2.10 27.15,-4.20 L15.85,-28.50 L16.80,-29.35 L7.15,-6.15 Q5.90,-3.10 6.95,-1.85 Q8.00,-0.60 11.40,-0.60 Q11.65,-0.60 11.65,-0.30 Q11.65,-0.00 11.40,-0.00 Q9.90,-0.00 8.65,-0.10 Q7.40,-0.20 5.50,-0.20 Q3.75,-0.20 2.67,-0.10 Q1.60,-0.00 0.10,-0.00 Q-0.10,-0.00 -0.10,-0.30 Q-0.10,-0.60 0.10,-0.60 Q1.45,-0.60 2.45,-1.10 Q3.45,-1.60 4.33,-2.90 Q5.20,-4.20 6.20,-6.60 L16.65,-31.75 Q16.75,-31.90 16.98,-31.90 Q17.20,-31.90 17.25,-31.75 L28.85,-6.85 Q30.00,-4.35 30.90,-2.98 Q31.80,-1.60 32.70,-1.10 Q33.60,-0.60 34.70,-0.60 Z M51.80,-5.20 L51.80,-30.10 L52.90,-30.00 L52.90,-5.20 Q52.90,-2.65 53.75,-1.62 Q54.60,-0.60 56.70,-0.60 Q56.85,-0.60 56.85,-0.30 Q56.85,-0.00 56.70,-0.00 Q55.75,-0.00 54.72,-0.05 Q53.70,-0.10 52.45,-0.10 Q51.25,-0.10 50.15,-0.05 Q49.05,-0.00 48.05,-0.00 Q47.95,-0.00 47.95,-0.30 Q47.95,-0.60 48.05,-0.60 Q50.25,-0.60 51.02,-1.62 Q51.80,-2.65 51.80,-5.20 Z M76.95,0.55 Q76.95,0.65 76.70,0.67 Q76.45,0.70 76.35,0.65 L53.75,-27.15 Q52.05,-29.20 50.72,-29.92 Q49.40,-30.65 48.20,-30.65 Q48.05,-30.65 48.05,-30.95 Q48.05,-31.25 48.20,-31.25 Q49.05,-31.25 49.95,-31.20 Q50.85,-31.15 51.55,-31.15 Q52.25,-31.15 52.88,-31.20 Q53.50,-31.25 53.80,-31.25 Q54.45,-31.25 54.70,-30.67 Q54.95,-30.10 56.10,-28.65 L76.55,-3.25 L76.95,0.55 Z M76.95,-26.00 L76.95,0.55 L75.85,-1.00 L75.85,-26.00 Q75.85,-28.55 75.05,-29.59 Q74.25,-30.65 72.15,-30.65 Q72.05,-30.65 72.05,-30.95 Q72.05,-31.25 72.15,-31.25 Q73.15,-31.25 74.17,-31.17 Q75.20,-31.10 76.45,-31.10 Q77.60,-31.10 78.75,-31.17 Q79.90,-31.25 80.85,-31.25 Q81.00,-31.25 81.00,-30.95 Q81.00,-30.65 80.85,-30.65 Q78.70,-30.65 77.82,-29.59 Q76.95,-28.55 76.95,-26.00 Z M108.00,0.20 Q106.60,0.20 104.55,0.05 Q102.50,-0.10 100.75,-0.10 Q99.15,-0.10 97.65,-0.05 Q96.15,-0.00 94.95,-0.00 Q94.85,-0.00 94.85,-0.30 Q94.85,-0.60 94.95,-0.60 Q96.85,-0.60 97.82,-0.85 Q98.80,-1.10 99.12,-1.85 Q99.45,-2.60 99.45,-4.05 L99.45,-27.20 Q99.45,-28.65 99.12,-29.38 Q98.80,-30.10 97.84,-30.38 Q96.90,-30.65 95.00,-30.65 Q94.90,-30.65 94.90,-30.95 Q94.90,-31.25 95.00,-31.25 Q96.20,-31.25 97.67,-31.17 Q99.15,-31.10 100.75,-31.10 Q102.35,-31.10 104.17,-31.23 Q106.00,-31.35 107.30,-31.35 Q112.65,-31.35 116.65,-29.35 Q120.65,-27.35 122.88,-23.90 Q125.10,-20.45 125.10,-16.15 Q125.10,-12.40 123.75,-9.38 Q122.40,-6.35 120.02,-4.23 Q117.65,-2.10 114.55,-0.95 Q111.45,0.20 108.00,0.20 Z M107.50,-0.45 Q111.70,-0.45 114.92,-2.12 Q118.15,-3.80 120.00,-7.07 Q121.85,-10.35 121.85,-15.05 Q121.85,-19.45 120.12,-22.98 Q118.40,-26.50 115.25,-28.60 Q112.10,-30.70 107.75,-30.70 Q104.70,-30.70 103.40,-30.08 Q102.10,-29.45 102.10,-27.10 L102.10,-4.60 Q102.10,-2.45 103.12,-1.45 Q104.15,-0.45 107.50,-0.45 Z M166.55,-0.00 Q165.70,-0.00 163.74,-1.95 Q161.80,-3.90 159.05,-7.52 Q156.30,-11.15 152.90,-16.10 L155.30,-16.85 Q159.59,-10.80 162.59,-7.22 Q165.59,-3.65 167.89,-2.12 Q170.20,-0.60 172.34,-0.60 Q172.50,-0.60 172.50,-0.30 Q172.50,-0.00 172.34,-0.00 Q170.09,-0.00 168.67,-0.00 Q167.25,-0.00 166.55,-0.00 Z M153.50,-31.40 Q157.34,-31.40 159.37,-29.55 Q161.40,-27.70 161.40,-24.75 Q161.40,-22.10 159.84,-19.95 Q158.30,-17.80 155.72,-16.55 Q153.15,-15.30 150.05,-15.30 Q149.59,-15.30 148.99,-15.34 Q148.40,-15.40 147.90,-15.45 L147.90,-4.05 Q147.90,-2.60 148.20,-1.85 Q148.50,-1.10 149.47,-0.85 Q150.45,-0.60 152.34,-0.60 Q152.50,-0.60 152.50,-0.30 Q152.50,-0.00 152.34,-0.00 Q151.15,-0.00 149.72,-0.05 Q148.30,-0.10 146.55,-0.10 Q144.95,-0.10 143.45,-0.05 Q141.95,-0.00 140.75,-0.00 Q140.65,-0.00 140.65,-0.30 Q140.65,-0.60 140.75,-0.60 Q142.65,-0.60 143.62,-0.85 Q144.59,-1.10 144.95,-1.85 Q145.30,-2.60 145.30,-4.05 L145.30,-27.20 Q145.30,-28.65 144.97,-29.38 Q144.65,-30.10 143.70,-30.38 Q142.75,-30.65 140.84,-30.65 Q140.70,-30.65 140.70,-30.95 Q140.70,-31.25 140.84,-31.25 Q142.00,-31.25 143.47,-31.17 Q144.95,-31.10 146.55,-31.10 Q148.09,-31.10 150.14,-31.25 Q152.20,-31.40 153.50,-31.40 Z M158.59,-23.40 Q158.59,-26.10 157.72,-27.70 Q156.84,-29.30 155.22,-30.02 Q153.59,-30.75 151.30,-30.75 Q149.50,-30.75 148.70,-30.10 Q147.90,-29.45 147.90,-27.10 L147.90,-16.60 Q148.59,-16.55 149.42,-16.50 Q150.25,-16.45 150.90,-16.45 Q155.20,-16.45 156.89,-18.25 Q158.59,-20.05 158.59,-23.40 Z M202.80,-0.00 L182.15,-0.00 Q182.05,-0.00 182.05,-0.30 Q182.05,-0.60 182.15,-0.60 Q184.05,-0.60 184.99,-0.85 Q185.95,-1.10 186.27,-1.85 Q186.59,-2.60 186.59,-4.05 L186.59,-27.20 Q186.59,-28.65 186.27,-29.38 Q185.95,-30.10 184.99,-30.38 Q184.05,-30.65 182.15,-30.65 Q182.05,-30.65 182.05,-30.95 Q182.05,-31.25 182.15,-31.25 L201.95,-31.25 Q202.40,-31.25 202.40,-30.80 L202.49,-24.75 Q202.49,-24.60 202.22,-24.60 Q201.95,-24.60 201.95,-24.75 Q201.95,-27.35 200.59,-28.82 Q199.24,-30.30 197.05,-30.30 L193.59,-30.30 Q191.74,-30.30 190.82,-30.05 Q189.90,-29.80 189.57,-29.07 Q189.24,-28.35 189.24,-26.90 L189.24,-4.25 Q189.24,-2.85 189.57,-2.15 Q189.90,-1.45 190.82,-1.20 Q191.74,-0.95 193.59,-0.95 L198.20,-0.95 Q200.20,-0.95 201.64,-2.70 Q203.09,-4.45 203.45,-7.30 Q203.45,-7.45 203.74,-7.42 Q204.05,-7.40 204.05,-7.25 Q203.84,-5.95 203.72,-4.12 Q203.59,-2.30 203.59,-0.75 Q203.59,-0.00 202.80,-0.00 Z M199.99,-11.75 Q199.99,-14.00 199.04,-14.90 Q198.09,-15.80 195.70,-15.80 L187.99,-15.80 L187.99,-16.75 L195.84,-16.75 Q198.15,-16.75 199.05,-17.52 Q199.95,-18.30 199.95,-20.20 Q199.95,-20.30 200.24,-20.30 Q200.55,-20.30 200.55,-20.20 Q200.55,-18.75 200.52,-17.95 Q200.49,-17.15 200.49,-16.25 Q200.49,-15.15 200.54,-14.07 Q200.59,-13.00 200.59,-11.75 Q200.59,-11.65 200.29,-11.65 Q199.99,-11.65 199.99,-11.75 Z M247.59,-5.20 L248.09,-30.10 L249.20,-30.00 L248.74,-5.20 Q248.70,-2.65 249.57,-1.62 Q250.45,-0.60 252.95,-0.60 Q253.05,-0.60 253.05,-0.30 Q253.05,-0.00 252.95,-0.00 Q251.84,-0.00 250.66,-0.05 Q249.49,-0.10 248.09,-0.10 Q246.89,-0.10 245.79,-0.05 Q244.70,-0.00 243.70,-0.00 Q243.59,-0.00 243.59,-0.30 Q243.59,-0.60 243.70,-0.60 Q245.80,-0.60 246.67,-1.62 Q247.55,-2.65 247.59,-5.20 Z M281.95,-0.60 Q282.09,-0.60 282.09,-0.30 Q282.09,-0.00 281.95,-0.00 Q280.74,-0.00 279.27,-0.05 Q277.80,-0.10 276.14,-0.10 Q274.59,-0.10 273.29,-0.05 Q271.99,-0.00 270.95,-0.00 Q270.84,-0.00 270.84,-0.30 Q270.84,-0.60 270.95,-0.60 Q273.45,-0.60 274.16,-1.25 Q274.89,-1.90 274.80,-4.05 L273.89,-28.70 L275.34,-30.55 L262.24,-0.35 Q262.20,-0.15 261.84,-0.15 Q261.49,-0.15 261.39,-0.35 L249.20,-27.10 Q247.59,-30.65 244.05,-30.65 Q243.95,-30.65 243.95,-30.95 Q243.95,-31.25 244.05,-31.25 Q244.80,-31.25 245.64,-31.20 Q246.49,-31.15 247.05,-31.15 Q247.74,-31.15 248.34,-31.20 Q248.95,-31.25 249.24,-31.25 Q249.95,-31.25 250.34,-30.80 Q250.74,-30.35 251.55,-28.65 L262.99,-3.90 L261.70,-1.80 L273.99,-30.00 Q274.24,-30.55 274.66,-30.90 Q275.09,-31.25 275.49,-31.25 Q275.74,-31.25 276.24,-31.20 Q276.74,-31.15 277.39,-31.15 Q278.70,-31.15 279.49,-31.20 Q280.30,-31.25 281.20,-31.25 Q281.30,-31.25 281.30,-30.95 Q281.30,-30.65 281.20,-30.65 Q278.74,-30.65 277.59,-30.02 Q276.45,-29.40 276.49,-27.30 L277.45,-4.05 Q277.49,-2.60 277.81,-1.85 Q278.14,-1.10 279.09,-0.85 Q280.05,-0.60 281.95,-0.60 Z M316.95,-0.00 L296.30,-0.00 Q296.20,-0.00 296.20,-0.30 Q296.20,-0.60 296.30,-0.60 Q298.20,-0.60 299.14,-0.85 Q300.09,-1.10 300.41,-1.85 Q300.74,-2.60 300.74,-4.05 L300.74,-27.20 Q300.74,-28.65 300.41,-29.38 Q300.09,-30.10 299.14,-30.38 Q298.20,-30.65 296.30,-30.65 Q296.20,-30.65 296.20,-30.95 Q296.20,-31.25 296.30,-31.25 L316.09,-31.25 Q316.55,-31.25 316.55,-30.80 L316.64,-24.75 Q316.64,-24.60 316.37,-24.60 Q316.09,-24.60 316.09,-24.75 Q316.09,-27.35 314.74,-28.82 Q313.39,-30.30 311.20,-30.30 L307.74,-30.30 Q305.89,-30.30 304.97,-30.05 Q304.05,-29.80 303.72,-29.07 Q303.39,-28.35 303.39,-26.90 L303.39,-4.25 Q303.39,-2.85 303.72,-2.15 Q304.05,-1.45 304.97,-1.20 Q305.89,-0.95 307.74,-0.95 L312.34,-0.95 Q314.34,-0.95 315.79,-2.70 Q317.24,-4.45 317.59,-7.30 Q317.59,-7.45 317.89,-7.42 Q318.20,-7.40 318.20,-7.25 Q317.99,-5.95 317.87,-4.12 Q317.74,-2.30 317.74,-0.75 Q317.74,-0.00 316.95,-0.00 Z M314.14,-11.75 Q314.14,-14.00 313.19,-14.90 Q312.24,-15.80 309.84,-15.80 L302.14,-15.80 L302.14,-16.75 L309.99,-16.75 Q312.30,-16.75 313.20,-17.52 Q314.09,-18.30 314.09,-20.20 Q314.09,-20.30 314.39,-20.30 Q314.70,-20.30 314.70,-20.20 Q314.70,-18.75 314.66,-17.95 Q314.64,-17.15 314.64,-16.25 Q314.64,-15.15 314.69,-14.07 Q314.74,-13.00 314.74,-11.75 Q314.74,-11.65 314.44,-11.65 Q314.14,-11.65 314.14,-11.75 Z M340.64,-27.15 L340.64,-4.25 Q340.64,-2.85 340.96,-2.15 Q341.29,-1.45 342.21,-1.20 Q343.14,-0.95 344.95,-0.95 L351.34,-0.95 Q353.99,-0.95 355.39,-2.70 Q356.79,-4.45 357.20,-7.30 Q357.20,-7.45 357.47,-7.42 Q357.74,-7.40 357.74,-7.25 Q357.59,-5.95 357.44,-4.12 Q357.29,-2.30 357.29,-0.75 Q357.29,-0.00 356.54,-0.00 L333.54,-0.00 Q333.45,-0.00 333.45,-0.30 Q333.45,-0.60 333.54,-0.60 Q335.45,-0.60 336.39,-0.85 Q337.34,-1.10 337.66,-1.85 Q337.99,-2.60 337.99,-4.05 L337.99,-27.20 Q337.99,-28.65 337.66,-29.38 Q337.34,-30.10 336.39,-30.38 Q335.45,-30.65 333.54,-30.65 Q333.45,-30.65 333.45,-30.95 Q333.45,-31.25 333.54,-31.25 Q334.74,-31.25 336.22,-31.17 Q337.70,-31.10 339.29,-31.10 Q340.99,-31.10 342.47,-31.17 Q343.95,-31.25 345.09,-31.25 Q345.20,-31.25 345.20,-30.95 Q345.20,-30.65 345.09,-30.65 Q343.20,-30.65 342.24,-30.38 Q341.29,-30.10 340.96,-29.35 Q340.64,-28.60 340.64,-27.15 Z M387.54,0.60 Q383.95,0.60 381.02,-0.67 Q378.09,-1.95 376.02,-4.20 Q373.95,-6.45 372.82,-9.38 Q371.70,-12.30 371.70,-15.60 Q371.70,-19.65 373.27,-22.70 Q374.84,-25.75 377.44,-27.77 Q380.04,-29.80 383.14,-30.80 Q386.24,-31.80 389.29,-31.80 Q392.99,-31.80 395.91,-30.47 Q398.84,-29.15 400.89,-26.90 Q402.95,-24.65 404.02,-21.80 Q405.09,-18.95 405.09,-15.95 Q405.09,-12.45 403.69,-9.45 Q402.29,-6.45 399.87,-4.20 Q397.45,-1.95 394.27,-0.67 Q391.09,0.60 387.54,0.60 Z M389.34,-0.40 Q392.84,-0.40 395.69,-2.02 Q398.54,-3.65 400.21,-6.82 Q401.89,-10.00 401.89,-14.55 Q401.89,-19.30 400.06,-22.92 Q398.24,-26.55 394.94,-28.62 Q391.64,-30.70 387.20,-30.70 Q381.39,-30.70 378.14,-27.10 Q374.89,-23.50 374.89,-17.30 Q374.89,-13.80 375.91,-10.72 Q376.95,-7.65 378.87,-5.32 Q380.79,-3.00 383.44,-1.70 Q386.09,-0.40 389.34,-0.40 Z M424.44,-5.20 L424.44,-30.10 L425.54,-30.00 L425.54,-5.20 Q425.54,-2.65 426.39,-1.62 Q427.24,-0.60 429.34,-0.60 Q429.49,-0.60 429.49,-0.30 Q429.49,-0.00 429.34,-0.00 Q428.39,-0.00 427.36,-0.05 Q426.34,-0.10 425.09,-0.10 Q423.89,-0.10 422.79,-0.05 Q421.69,-0.00 420.69,-0.00 Q420.59,-0.00 420.59,-0.30 Q420.59,-0.60 420.69,-0.60 Q422.89,-0.60 423.66,-1.62 Q424.44,-2.65 424.44,-5.20 Z M449.59,0.55 Q449.59,0.65 449.34,0.67 Q449.09,0.70 448.99,0.65 L426.39,-27.15 Q424.69,-29.20 423.36,-29.92 Q422.04,-30.65 420.84,-30.65 Q420.69,-30.65 420.69,-30.95 Q420.69,-31.25 420.84,-31.25 Q421.69,-31.25 422.59,-31.20 Q423.49,-31.15 424.19,-31.15 Q424.89,-31.15 425.52,-31.20 Q426.14,-31.25 426.44,-31.25 Q427.09,-31.25 427.34,-30.67 Q427.59,-30.10 428.74,-28.65 L449.19,-3.25 L449.59,0.55 Z M449.59,-26.00 L449.59,0.55 L448.49,-1.00 L448.49,-26.00 Q448.49,-28.55 447.69,-29.59 Q446.89,-30.65 444.79,-30.65 Q444.69,-30.65 444.69,-30.95 Q444.69,-31.25 444.79,-31.25 Q445.79,-31.25 446.81,-31.17 Q447.84,-31.10 449.09,-31.10 Q450.24,-31.10 451.39,-31.17 Q452.54,-31.25 453.49,-31.25 Q453.64,-31.25 453.64,-30.95 Q453.64,-30.65 453.49,-30.65 Q451.34,-30.65 450.46,-29.59 Q449.59,-28.55 449.59,-26.00 Z M475.39,-4.05 Q475.39,-2.60 475.69,-1.85 Q475.99,-1.10 476.96,-0.85 Q477.94,-0.60 479.84,-0.60 Q479.94,-0.60 479.94,-0.30 Q479.94,-0.00 479.84,-0.00 Q478.64,-0.00 477.19,-0.05 Q475.74,-0.10 473.99,-0.10 Q472.34,-0.10 470.86,-0.05 Q469.39,-0.00 468.19,-0.00 Q468.04,-0.00 468.04,-0.30 Q468.04,-0.60 468.19,-0.60 Q470.09,-0.60 471.06,-0.85 Q472.04,-1.10 472.36,-1.85 Q472.69,-2.60 472.69,-4.05 L472.69,-27.20 Q472.69,-28.65 472.36,-29.38 Q472.04,-30.10 471.06,-30.38 Q470.09,-30.65 468.19,-30.65 Q468.04,-30.65 468.04,-30.95 Q468.04,-31.25 468.19,-31.25 Q469.39,-31.25 470.86,-31.17 Q472.34,-31.10 473.99,-31.10 Q475.74,-31.10 477.21,-31.17 Q478.69,-31.25 479.84,-31.25 Q479.94,-31.25 479.94,-30.95 Q479.94,-30.65 479.84,-30.65 Q477.94,-30.65 476.98,-30.34 Q476.04,-30.05 475.71,-29.30 Q475.39,-28.55 475.39,-27.10 L475.39,-4.05 Z" fill="#F7F4EE"/>
  <line x1="190.0" y1="625" x2="302.0" y2="625" stroke="#B0905A" stroke-width="1.4"/>
  <line x1="338.0" y1="625" x2="450.0" y2="625" stroke="#B0905A" stroke-width="1.4"/>
  <rect x="314.0" y="619" width="12" height="12" transform="rotate(45 320.0 625)" fill="none" stroke="#B0905A" stroke-width="1.4"/>
<path transform="translate(105.53,684.00)" d="M10.67,-7.15 L7.79,-0.02 Q7.77,0.07 7.56,0.07 Q7.35,0.07 7.30,-0.02 L1.87,-11.92 Q1.63,-12.50 1.35,-12.84 Q1.08,-13.18 0.75,-13.33 Q0.42,-13.49 -0.04,-13.49 Q-0.11,-13.49 -0.11,-13.62 Q-0.11,-13.75 -0.04,-13.75 Q0.26,-13.75 0.58,-13.73 Q0.90,-13.71 1.22,-13.70 Q1.54,-13.68 1.83,-13.68 Q2.35,-13.68 2.79,-13.70 Q3.23,-13.71 3.60,-13.73 Q3.96,-13.75 4.29,-13.75 Q4.36,-13.75 4.36,-13.62 Q4.36,-13.49 4.29,-13.49 Q3.45,-13.49 3.09,-13.21 Q2.73,-12.94 3.08,-12.14 L8.14,-1.23 L7.39,-0.29 L10.36,-7.59 L10.67,-7.15 Z M20.66,-13.75 Q20.72,-13.75 20.72,-13.62 Q20.72,-13.49 20.66,-13.49 Q19.98,-13.49 19.46,-13.20 Q18.94,-12.91 18.55,-11.97 L13.71,-0.02 Q13.68,0.07 13.47,0.07 Q13.27,0.07 13.22,-0.02 L7.79,-11.92 Q7.41,-12.78 7.00,-13.13 Q6.58,-13.49 5.87,-13.49 Q5.81,-13.49 5.81,-13.62 Q5.81,-13.75 5.87,-13.75 Q6.18,-13.75 6.50,-13.73 Q6.82,-13.71 7.14,-13.70 Q7.46,-13.68 7.74,-13.68 Q8.32,-13.68 8.71,-13.72 Q9.11,-13.75 9.44,-13.75 Q9.50,-13.75 9.50,-13.62 Q9.50,-13.49 9.44,-13.49 Q8.73,-13.49 8.66,-13.27 Q8.58,-13.05 9.00,-12.14 L14.06,-1.23 L13.31,-0.29 L18.11,-12.10 Q18.41,-12.87 18.07,-13.18 Q17.73,-13.49 16.50,-13.49 Q16.43,-13.49 16.43,-13.62 Q16.43,-13.75 16.50,-13.75 Q17.01,-13.75 17.48,-13.72 Q17.95,-13.68 18.70,-13.68 Q19.34,-13.68 19.72,-13.72 Q20.11,-13.75 20.66,-13.75 Z M10.45,-7.59 L12.28,-12.10 Q12.58,-12.87 12.40,-13.18 Q12.21,-13.49 11.42,-13.49 Q11.37,-13.49 11.37,-13.62 Q11.37,-13.75 11.42,-13.75 Q11.66,-13.75 11.87,-13.73 Q12.08,-13.71 12.32,-13.70 Q12.56,-13.68 12.87,-13.68 Q13.49,-13.68 13.88,-13.72 Q14.28,-13.75 14.83,-13.75 Q14.87,-13.75 14.87,-13.62 Q14.87,-13.49 14.83,-13.49 Q14.15,-13.49 13.62,-13.20 Q13.09,-12.91 12.72,-11.97 L10.76,-7.15 L10.45,-7.59 Z M39.65,-0.00 L30.56,-0.00 Q30.52,-0.00 30.52,-0.13 Q30.52,-0.26 30.56,-0.26 Q31.40,-0.26 31.81,-0.37 Q32.23,-0.48 32.37,-0.81 Q32.52,-1.14 32.52,-1.78 L32.52,-11.97 Q32.52,-12.61 32.37,-12.93 Q32.23,-13.24 31.81,-13.37 Q31.40,-13.49 30.56,-13.49 Q30.52,-13.49 30.52,-13.62 Q30.52,-13.75 30.56,-13.75 L39.27,-13.75 Q39.47,-13.75 39.47,-13.55 L39.51,-10.89 Q39.51,-10.82 39.39,-10.82 Q39.27,-10.82 39.27,-10.89 Q39.27,-12.03 38.68,-12.68 Q38.08,-13.33 37.12,-13.33 L35.60,-13.33 Q34.78,-13.33 34.38,-13.22 Q33.97,-13.11 33.83,-12.79 Q33.68,-12.47 33.68,-11.84 L33.68,-1.87 Q33.68,-1.25 33.83,-0.95 Q33.97,-0.64 34.38,-0.53 Q34.78,-0.42 35.60,-0.42 L37.62,-0.42 Q38.50,-0.42 39.14,-1.19 Q39.78,-1.96 39.93,-3.21 Q39.93,-3.28 40.06,-3.27 Q40.20,-3.26 40.20,-3.19 Q40.11,-2.62 40.05,-1.81 Q40.00,-1.01 40.00,-0.33 Q40.00,-0.00 39.65,-0.00 Z M38.41,-5.17 Q38.41,-6.16 37.99,-6.56 Q37.58,-6.95 36.52,-6.95 L33.13,-6.95 L33.13,-7.37 L36.59,-7.37 Q37.60,-7.37 38.00,-7.71 Q38.39,-8.05 38.39,-8.89 Q38.39,-8.93 38.52,-8.93 Q38.66,-8.93 38.66,-8.89 Q38.66,-8.25 38.64,-7.90 Q38.63,-7.55 38.63,-7.15 Q38.63,-6.67 38.65,-6.19 Q38.68,-5.72 38.68,-5.17 Q38.68,-5.13 38.54,-5.13 Q38.41,-5.13 38.41,-5.17 Z M56.85,0.09 Q56.24,0.09 55.33,0.02 Q54.43,-0.04 53.66,-0.04 Q52.96,-0.04 52.30,-0.02 Q51.64,-0.00 51.11,-0.00 Q51.07,-0.00 51.07,-0.13 Q51.07,-0.26 51.11,-0.26 Q51.95,-0.26 52.37,-0.37 Q52.80,-0.48 52.94,-0.81 Q53.09,-1.14 53.09,-1.78 L53.09,-11.97 Q53.09,-12.61 52.94,-12.93 Q52.80,-13.24 52.38,-13.37 Q51.97,-13.49 51.13,-13.49 Q51.09,-13.49 51.09,-13.62 Q51.09,-13.75 51.13,-13.75 Q51.66,-13.75 52.31,-13.72 Q52.96,-13.68 53.66,-13.68 Q54.37,-13.68 55.17,-13.74 Q55.97,-13.79 56.54,-13.79 Q58.90,-13.79 60.66,-12.91 Q62.42,-12.03 63.40,-10.52 Q64.38,-9.00 64.38,-7.11 Q64.38,-5.46 63.78,-4.12 Q63.19,-2.79 62.14,-1.86 Q61.10,-0.92 59.73,-0.42 Q58.37,0.09 56.85,0.09 Z M56.63,-0.20 Q58.48,-0.20 59.90,-0.94 Q61.32,-1.67 62.13,-3.11 Q62.95,-4.55 62.95,-6.62 Q62.95,-8.56 62.19,-10.11 Q61.43,-11.66 60.04,-12.58 Q58.66,-13.51 56.74,-13.51 Q55.40,-13.51 54.83,-13.23 Q54.26,-12.96 54.26,-11.92 L54.26,-2.02 Q54.26,-1.08 54.71,-0.64 Q55.16,-0.20 56.63,-0.20 Z M80.99,0.09 Q80.37,0.09 79.47,0.02 Q78.57,-0.04 77.80,-0.04 Q77.09,-0.04 76.43,-0.02 Q75.77,-0.00 75.24,-0.00 Q75.20,-0.00 75.20,-0.13 Q75.20,-0.26 75.24,-0.26 Q76.08,-0.26 76.51,-0.37 Q76.94,-0.48 77.08,-0.81 Q77.22,-1.14 77.22,-1.78 L77.22,-11.97 Q77.22,-12.61 77.08,-12.93 Q76.94,-13.24 76.52,-13.37 Q76.10,-13.49 75.27,-13.49 Q75.22,-13.49 75.22,-13.62 Q75.22,-13.75 75.27,-13.75 Q75.79,-13.75 76.44,-13.72 Q77.09,-13.68 77.80,-13.68 Q78.50,-13.68 79.30,-13.74 Q80.11,-13.79 80.68,-13.79 Q83.03,-13.79 84.79,-12.91 Q86.55,-12.03 87.53,-10.52 Q88.51,-9.00 88.51,-7.11 Q88.51,-5.46 87.92,-4.12 Q87.32,-2.79 86.28,-1.86 Q85.23,-0.92 83.87,-0.42 Q82.50,0.09 80.99,0.09 Z M80.77,-0.20 Q82.61,-0.20 84.03,-0.94 Q85.45,-1.67 86.27,-3.11 Q87.08,-4.55 87.08,-6.62 Q87.08,-8.56 86.32,-10.11 Q85.56,-11.66 84.18,-12.58 Q82.79,-13.51 80.88,-13.51 Q79.53,-13.51 78.96,-13.23 Q78.39,-12.96 78.39,-11.92 L78.39,-2.02 Q78.39,-1.08 78.84,-0.64 Q79.29,-0.20 80.77,-0.20 Z M102.81,-1.78 Q102.81,-1.14 102.94,-0.81 Q103.08,-0.48 103.50,-0.37 Q103.93,-0.26 104.77,-0.26 Q104.81,-0.26 104.81,-0.13 Q104.81,-0.00 104.77,-0.00 Q104.24,-0.00 103.60,-0.02 Q102.97,-0.04 102.20,-0.04 Q101.47,-0.04 100.82,-0.02 Q100.17,-0.00 99.64,-0.00 Q99.58,-0.00 99.58,-0.13 Q99.58,-0.26 99.64,-0.26 Q100.48,-0.26 100.91,-0.37 Q101.34,-0.48 101.48,-0.81 Q101.62,-1.14 101.62,-1.78 L101.62,-11.97 Q101.62,-12.61 101.48,-12.93 Q101.34,-13.24 100.91,-13.37 Q100.48,-13.49 99.64,-13.49 Q99.58,-13.49 99.58,-13.62 Q99.58,-13.75 99.64,-13.75 Q100.17,-13.75 100.82,-13.72 Q101.47,-13.68 102.20,-13.68 Q102.97,-13.68 103.61,-13.72 Q104.26,-13.75 104.77,-13.75 Q104.81,-13.75 104.81,-13.62 Q104.81,-13.49 104.77,-13.49 Q103.93,-13.49 103.51,-13.35 Q103.10,-13.22 102.95,-12.89 Q102.81,-12.56 102.81,-11.92 L102.81,-1.78 Z M117.44,-2.29 L117.44,-13.24 L117.93,-13.20 L117.93,-2.29 Q117.93,-1.17 118.30,-0.71 Q118.68,-0.26 119.60,-0.26 Q119.67,-0.26 119.67,-0.13 Q119.67,-0.00 119.60,-0.00 Q119.18,-0.00 118.73,-0.02 Q118.28,-0.04 117.73,-0.04 Q117.20,-0.04 116.72,-0.02 Q116.23,-0.00 115.79,-0.00 Q115.75,-0.00 115.75,-0.13 Q115.75,-0.26 115.79,-0.26 Q116.76,-0.26 117.10,-0.71 Q117.44,-1.17 117.44,-2.29 Z M128.51,0.24 Q128.51,0.29 128.40,0.30 Q128.29,0.31 128.25,0.29 L118.30,-11.95 Q117.55,-12.85 116.97,-13.17 Q116.39,-13.49 115.86,-13.49 Q115.79,-13.49 115.79,-13.62 Q115.79,-13.75 115.86,-13.75 Q116.23,-13.75 116.63,-13.73 Q117.03,-13.71 117.33,-13.71 Q117.64,-13.71 117.92,-13.73 Q118.19,-13.75 118.32,-13.75 Q118.61,-13.75 118.72,-13.50 Q118.83,-13.24 119.34,-12.61 L128.33,-1.43 L128.51,0.24 Z M128.51,-11.44 L128.51,0.24 L128.03,-0.44 L128.03,-11.44 Q128.03,-12.56 127.67,-13.02 Q127.32,-13.49 126.40,-13.49 Q126.35,-13.49 126.35,-13.62 Q126.35,-13.75 126.40,-13.75 Q126.84,-13.75 127.29,-13.72 Q127.74,-13.68 128.29,-13.68 Q128.80,-13.68 129.30,-13.72 Q129.81,-13.75 130.23,-13.75 Q130.29,-13.75 130.29,-13.62 Q130.29,-13.49 130.23,-13.49 Q129.28,-13.49 128.89,-13.02 Q128.51,-12.56 128.51,-11.44 Z M148.71,0.26 Q146.86,0.26 145.39,-0.31 Q143.93,-0.88 142.93,-1.89 Q141.93,-2.90 141.40,-4.21 Q140.88,-5.52 140.88,-7.00 Q140.88,-8.65 141.50,-9.93 Q142.13,-11.22 143.24,-12.13 Q144.35,-13.05 145.84,-13.52 Q147.32,-13.99 149.04,-13.99 Q150.27,-13.99 151.28,-13.75 Q152.29,-13.51 152.98,-13.07 Q153.13,-12.98 153.15,-12.91 Q153.17,-12.85 153.20,-12.58 L153.46,-10.12 Q153.46,-10.05 153.35,-10.03 Q153.24,-10.01 153.20,-10.08 Q152.95,-10.98 152.59,-11.65 Q152.23,-12.32 151.69,-12.76 Q151.15,-13.20 150.42,-13.43 Q149.70,-13.66 148.73,-13.66 Q146.93,-13.66 145.47,-12.89 Q144.02,-12.12 143.17,-10.69 Q142.33,-9.26 142.33,-7.28 Q142.33,-6.01 142.73,-4.72 Q143.14,-3.43 143.99,-2.38 Q144.84,-1.32 146.16,-0.68 Q147.48,-0.04 149.30,-0.04 Q150.40,-0.04 151.05,-0.33 Q151.70,-0.62 151.98,-1.21 Q152.27,-1.80 152.27,-2.75 Q152.27,-3.81 152.13,-4.30 Q151.99,-4.80 151.45,-4.95 Q150.91,-5.10 149.70,-5.10 Q149.57,-5.10 149.57,-5.28 Q149.57,-5.46 149.68,-5.46 Q151.04,-5.37 152.16,-5.36 Q153.28,-5.35 154.52,-5.41 Q154.63,-5.41 154.63,-5.26 Q154.63,-5.10 154.52,-5.10 Q153.97,-5.13 153.71,-4.96 Q153.46,-4.80 153.39,-4.25 Q153.33,-3.70 153.33,-2.53 Q153.33,-1.80 153.37,-1.45 Q153.42,-1.10 153.45,-0.94 Q153.48,-0.77 153.48,-0.59 Q153.48,-0.46 153.44,-0.42 Q153.39,-0.37 153.24,-0.33 Q152.14,-0.09 150.94,0.09 Q149.74,0.26 148.71,0.26 Z M183.21,-1.87 Q183.21,-1.21 183.39,-0.87 Q183.58,-0.53 184.18,-0.40 Q184.77,-0.26 185.96,-0.26 Q186.03,-0.26 186.03,-0.13 Q186.03,-0.00 185.96,-0.00 Q185.26,-0.00 184.43,-0.02 Q183.61,-0.04 182.64,-0.04 Q181.93,-0.04 181.27,-0.02 Q180.61,-0.00 180.09,-0.00 Q180.04,-0.00 180.04,-0.13 Q180.04,-0.26 180.09,-0.26 Q180.92,-0.26 181.34,-0.37 Q181.76,-0.48 181.90,-0.81 Q182.04,-1.14 182.04,-1.78 L182.04,-11.97 Q182.04,-12.61 181.90,-12.93 Q181.76,-13.24 181.34,-13.37 Q180.92,-13.49 180.09,-13.49 Q180.04,-13.49 180.04,-13.62 Q180.04,-13.75 180.09,-13.75 Q180.61,-13.75 181.26,-13.72 Q181.91,-13.68 182.62,-13.68 Q183.19,-13.68 184.00,-13.75 Q184.82,-13.82 185.70,-13.82 Q186.91,-13.82 187.90,-13.44 Q188.89,-13.07 189.47,-12.28 Q190.05,-11.48 190.05,-10.21 Q190.05,-9.04 189.61,-8.21 Q189.17,-7.37 188.46,-6.83 Q187.74,-6.29 186.88,-6.03 Q186.03,-5.76 185.19,-5.76 Q184.90,-5.76 184.63,-5.79 Q184.35,-5.81 184.11,-5.87 Q184.02,-5.90 184.05,-6.04 Q184.09,-6.18 184.16,-6.16 Q184.35,-6.12 184.56,-6.09 Q184.77,-6.07 184.95,-6.07 Q185.92,-6.07 186.77,-6.47 Q187.63,-6.86 188.16,-7.69 Q188.69,-8.51 188.69,-9.77 Q188.69,-10.98 188.21,-11.81 Q187.74,-12.65 186.95,-13.09 Q186.16,-13.53 185.19,-13.53 Q184.40,-13.53 183.97,-13.45 Q183.54,-13.38 183.37,-13.05 Q183.21,-12.72 183.21,-11.92 L183.21,-1.87 Z M212.71,-11.92 Q212.71,-12.56 212.58,-12.89 Q212.45,-13.22 212.03,-13.35 Q211.61,-13.49 210.76,-13.49 Q210.69,-13.49 210.69,-13.62 Q210.69,-13.75 210.76,-13.75 Q211.26,-13.75 211.91,-13.72 Q212.56,-13.68 213.31,-13.68 Q214.01,-13.68 214.67,-13.72 Q215.33,-13.75 215.84,-13.75 Q215.90,-13.75 215.90,-13.62 Q215.90,-13.49 215.84,-13.49 Q215.00,-13.49 214.57,-13.37 Q214.14,-13.24 214.00,-12.93 Q213.86,-12.61 213.86,-11.97 L213.86,-1.78 Q213.86,-1.14 214.00,-0.81 Q214.14,-0.48 214.57,-0.37 Q215.00,-0.26 215.84,-0.26 Q215.90,-0.26 215.90,-0.13 Q215.90,-0.00 215.84,-0.00 Q215.33,-0.00 214.67,-0.02 Q214.01,-0.04 213.31,-0.04 Q212.56,-0.04 211.91,-0.02 Q211.26,-0.00 210.76,-0.00 Q210.69,-0.00 210.69,-0.13 Q210.69,-0.26 210.76,-0.26 Q211.61,-0.26 212.03,-0.37 Q212.45,-0.48 212.58,-0.81 Q212.71,-1.14 212.71,-1.78 L212.71,-11.92 Z M203.30,-6.95 L203.30,-7.37 L213.20,-7.37 L213.20,-6.95 L203.30,-6.95 Z M202.77,-1.78 L202.77,-11.97 Q202.77,-12.61 202.62,-12.93 Q202.48,-13.24 202.06,-13.37 Q201.65,-13.49 200.81,-13.49 Q200.77,-13.49 200.77,-13.62 Q200.77,-13.75 200.81,-13.75 Q201.34,-13.75 201.99,-13.72 Q202.64,-13.68 203.34,-13.68 Q204.11,-13.68 204.75,-13.72 Q205.39,-13.75 205.89,-13.75 Q205.94,-13.75 205.94,-13.62 Q205.94,-13.49 205.89,-13.49 Q205.06,-13.49 204.64,-13.35 Q204.22,-13.22 204.08,-12.89 Q203.94,-12.56 203.94,-11.92 L203.94,-1.78 Q203.94,-1.14 204.07,-0.81 Q204.20,-0.48 204.63,-0.37 Q205.06,-0.26 205.89,-0.26 Q205.94,-0.26 205.94,-0.13 Q205.94,-0.00 205.89,-0.00 Q205.37,-0.00 204.74,-0.02 Q204.11,-0.04 203.34,-0.04 Q202.64,-0.04 201.98,-0.02 Q201.32,-0.00 200.79,-0.00 Q200.75,-0.00 200.75,-0.13 Q200.75,-0.26 200.79,-0.26 Q201.63,-0.26 202.05,-0.37 Q202.48,-0.48 202.62,-0.81 Q202.77,-1.14 202.77,-1.78 Z M233.72,0.26 Q232.14,0.26 230.85,-0.30 Q229.57,-0.86 228.65,-1.85 Q227.74,-2.84 227.25,-4.12 Q226.75,-5.41 226.75,-6.86 Q226.75,-8.65 227.44,-9.99 Q228.14,-11.33 229.28,-12.22 Q230.42,-13.11 231.79,-13.55 Q233.15,-13.99 234.49,-13.99 Q236.12,-13.99 237.41,-13.41 Q238.70,-12.83 239.60,-11.84 Q240.50,-10.85 240.97,-9.59 Q241.45,-8.34 241.45,-7.02 Q241.45,-5.48 240.83,-4.16 Q240.21,-2.84 239.15,-1.85 Q238.08,-0.86 236.68,-0.30 Q235.29,0.26 233.72,0.26 Z M234.52,-0.18 Q236.06,-0.18 237.31,-0.89 Q238.56,-1.61 239.30,-3.00 Q240.04,-4.40 240.04,-6.40 Q240.04,-8.49 239.23,-10.09 Q238.43,-11.68 236.98,-12.60 Q235.53,-13.51 233.57,-13.51 Q231.02,-13.51 229.59,-11.92 Q228.16,-10.34 228.16,-7.61 Q228.16,-6.07 228.61,-4.72 Q229.06,-3.37 229.91,-2.34 Q230.75,-1.32 231.92,-0.75 Q233.09,-0.18 234.52,-0.18 Z M255.48,-13.38 Q254.10,-13.38 253.47,-12.72 Q252.84,-12.06 252.60,-10.36 Q252.60,-10.32 252.47,-10.32 Q252.34,-10.32 252.34,-10.36 Q252.38,-10.63 252.44,-11.13 Q252.49,-11.64 252.53,-12.22 Q252.58,-12.80 252.61,-13.34 Q252.64,-13.88 252.64,-14.23 Q252.64,-14.34 252.77,-14.34 Q252.91,-14.34 252.91,-14.23 Q252.91,-14.01 253.12,-13.92 Q253.33,-13.82 253.60,-13.78 Q253.88,-13.75 254.07,-13.75 Q255.97,-13.68 258.50,-13.68 Q260.06,-13.68 260.97,-13.72 Q261.88,-13.75 262.74,-13.75 Q263.47,-13.75 263.87,-13.85 Q264.28,-13.95 264.39,-14.30 Q264.41,-14.39 264.52,-14.39 Q264.63,-14.39 264.63,-14.30 Q264.61,-13.97 264.57,-13.42 Q264.52,-12.87 264.50,-12.27 Q264.48,-11.66 264.46,-11.14 Q264.44,-10.63 264.44,-10.36 Q264.44,-10.32 264.30,-10.32 Q264.17,-10.32 264.17,-10.36 Q264.17,-12.06 263.60,-12.72 Q263.03,-13.38 261.51,-13.38 Q260.48,-13.38 259.96,-13.30 Q259.44,-13.22 259.28,-12.93 Q259.11,-12.63 259.11,-11.92 L259.11,-1.78 Q259.11,-1.14 259.27,-0.81 Q259.42,-0.48 259.89,-0.37 Q260.37,-0.26 261.33,-0.26 Q261.38,-0.26 261.38,-0.13 Q261.38,-0.00 261.33,-0.00 Q260.76,-0.00 260.05,-0.02 Q259.33,-0.04 258.50,-0.04 Q257.70,-0.04 256.99,-0.02 Q256.27,-0.00 255.68,-0.00 Q255.64,-0.00 255.64,-0.13 Q255.64,-0.26 255.68,-0.26 Q256.63,-0.26 257.11,-0.37 Q257.59,-0.48 257.76,-0.81 Q257.92,-1.14 257.92,-1.78 L257.92,-11.97 Q257.92,-12.67 257.75,-12.97 Q257.57,-13.27 257.04,-13.32 Q256.52,-13.38 255.48,-13.38 Z M279.90,0.26 Q278.32,0.26 277.03,-0.30 Q275.75,-0.86 274.83,-1.85 Q273.92,-2.84 273.43,-4.12 Q272.93,-5.41 272.93,-6.86 Q272.93,-8.65 273.62,-9.99 Q274.32,-11.33 275.46,-12.22 Q276.60,-13.11 277.97,-13.55 Q279.33,-13.99 280.67,-13.99 Q282.30,-13.99 283.59,-13.41 Q284.88,-12.83 285.78,-11.84 Q286.68,-10.85 287.15,-9.59 Q287.63,-8.34 287.63,-7.02 Q287.63,-5.48 287.01,-4.16 Q286.39,-2.84 285.33,-1.85 Q284.26,-0.86 282.86,-0.30 Q281.47,0.26 279.90,0.26 Z M280.70,-0.18 Q282.24,-0.18 283.49,-0.89 Q284.74,-1.61 285.48,-3.00 Q286.22,-4.40 286.22,-6.40 Q286.22,-8.49 285.41,-10.09 Q284.61,-11.68 283.16,-12.60 Q281.71,-13.51 279.75,-13.51 Q277.20,-13.51 275.77,-11.92 Q274.34,-10.34 274.34,-7.61 Q274.34,-6.07 274.79,-4.72 Q275.24,-3.37 276.09,-2.34 Q276.93,-1.32 278.10,-0.75 Q279.27,-0.18 280.70,-0.18 Z M306.61,0.26 Q304.76,0.26 303.30,-0.31 Q301.84,-0.88 300.84,-1.89 Q299.84,-2.90 299.31,-4.21 Q298.78,-5.52 298.78,-7.00 Q298.78,-8.65 299.41,-9.93 Q300.03,-11.22 301.14,-12.13 Q302.26,-13.05 303.74,-13.52 Q305.23,-13.99 306.94,-13.99 Q308.17,-13.99 309.18,-13.75 Q310.20,-13.51 310.88,-13.07 Q311.03,-12.98 311.05,-12.91 Q311.08,-12.85 311.10,-12.58 L311.36,-10.12 Q311.36,-10.05 311.25,-10.03 Q311.14,-10.01 311.10,-10.08 Q310.86,-10.98 310.49,-11.65 Q310.13,-12.32 309.59,-12.76 Q309.05,-13.20 308.33,-13.43 Q307.60,-13.66 306.63,-13.66 Q304.83,-13.66 303.38,-12.89 Q301.93,-12.12 301.08,-10.69 Q300.23,-9.26 300.23,-7.28 Q300.23,-6.01 300.64,-4.72 Q301.05,-3.43 301.89,-2.38 Q302.74,-1.32 304.06,-0.68 Q305.38,-0.04 307.21,-0.04 Q308.31,-0.04 308.95,-0.33 Q309.60,-0.62 309.89,-1.21 Q310.18,-1.80 310.18,-2.75 Q310.18,-3.81 310.03,-4.30 Q309.89,-4.80 309.35,-4.95 Q308.81,-5.10 307.60,-5.10 Q307.47,-5.10 307.47,-5.28 Q307.47,-5.46 307.58,-5.46 Q308.94,-5.37 310.06,-5.36 Q311.19,-5.35 312.42,-5.41 Q312.53,-5.41 312.53,-5.26 Q312.53,-5.10 312.42,-5.10 Q311.87,-5.13 311.62,-4.96 Q311.36,-4.80 311.30,-4.25 Q311.23,-3.70 311.23,-2.53 Q311.23,-1.80 311.28,-1.45 Q311.32,-1.10 311.35,-0.94 Q311.39,-0.77 311.39,-0.59 Q311.39,-0.46 311.34,-0.42 Q311.30,-0.37 311.14,-0.33 Q310.04,-0.09 308.84,0.09 Q307.65,0.26 306.61,0.26 Z M334.62,-0.00 Q334.25,-0.00 333.39,-0.86 Q332.53,-1.72 331.32,-3.31 Q330.11,-4.91 328.62,-7.08 L329.67,-7.41 Q331.56,-4.75 332.88,-3.18 Q334.20,-1.61 335.21,-0.94 Q336.23,-0.26 337.17,-0.26 Q337.24,-0.26 337.24,-0.13 Q337.24,-0.00 337.17,-0.00 Q336.18,-0.00 335.56,-0.00 Q334.93,-0.00 334.62,-0.00 Z M328.88,-13.82 Q330.57,-13.82 331.46,-13.00 Q332.36,-12.19 332.36,-10.89 Q332.36,-9.72 331.67,-8.78 Q330.99,-7.83 329.86,-7.28 Q328.73,-6.73 327.36,-6.73 Q327.16,-6.73 326.90,-6.75 Q326.64,-6.78 326.42,-6.80 L326.42,-1.78 Q326.42,-1.14 326.55,-0.81 Q326.68,-0.48 327.11,-0.37 Q327.54,-0.26 328.37,-0.26 Q328.44,-0.26 328.44,-0.13 Q328.44,-0.00 328.37,-0.00 Q327.85,-0.00 327.22,-0.02 Q326.59,-0.04 325.82,-0.04 Q325.12,-0.04 324.46,-0.02 Q323.80,-0.00 323.27,-0.00 Q323.23,-0.00 323.23,-0.13 Q323.23,-0.26 323.27,-0.26 Q324.11,-0.26 324.53,-0.37 Q324.96,-0.48 325.12,-0.81 Q325.27,-1.14 325.27,-1.78 L325.27,-11.97 Q325.27,-12.61 325.13,-12.93 Q324.99,-13.24 324.57,-13.37 Q324.15,-13.49 323.31,-13.49 Q323.25,-13.49 323.25,-13.62 Q323.25,-13.75 323.31,-13.75 Q323.82,-13.75 324.47,-13.72 Q325.12,-13.68 325.82,-13.68 Q326.50,-13.68 327.40,-13.75 Q328.31,-13.82 328.88,-13.82 Z M331.12,-10.30 Q331.12,-11.48 330.74,-12.19 Q330.35,-12.89 329.64,-13.21 Q328.92,-13.53 327.91,-13.53 Q327.12,-13.53 326.77,-13.24 Q326.42,-12.96 326.42,-11.92 L326.42,-7.30 Q326.72,-7.28 327.09,-7.26 Q327.45,-7.24 327.74,-7.24 Q329.63,-7.24 330.37,-8.03 Q331.12,-8.82 331.12,-10.30 Z M349.08,-6.31 L349.28,-6.71 L354.97,-6.71 L355.13,-6.31 L349.08,-6.31 Z M359.95,-0.26 Q360.03,-0.26 360.03,-0.13 Q360.03,-0.00 359.95,-0.00 Q359.33,-0.00 358.68,-0.04 Q358.03,-0.09 357.44,-0.09 Q356.76,-0.09 356.26,-0.04 Q355.77,-0.00 355.17,-0.00 Q355.08,-0.00 355.08,-0.13 Q355.08,-0.26 355.17,-0.26 Q356.40,-0.26 356.72,-0.59 Q357.04,-0.92 356.62,-1.85 L351.65,-12.54 L352.07,-12.91 L347.82,-2.71 Q347.27,-1.36 347.73,-0.81 Q348.20,-0.26 349.69,-0.26 Q349.80,-0.26 349.80,-0.13 Q349.80,-0.00 349.69,-0.00 Q349.03,-0.00 348.48,-0.04 Q347.93,-0.09 347.10,-0.09 Q346.33,-0.09 345.85,-0.04 Q345.38,-0.00 344.72,-0.00 Q344.63,-0.00 344.63,-0.13 Q344.63,-0.26 344.72,-0.26 Q345.32,-0.26 345.76,-0.48 Q346.20,-0.70 346.58,-1.28 Q346.97,-1.85 347.41,-2.90 L352.00,-13.97 Q352.05,-14.04 352.15,-14.04 Q352.25,-14.04 352.27,-13.97 L357.37,-3.01 Q357.88,-1.91 358.27,-1.31 Q358.67,-0.70 359.06,-0.48 Q359.46,-0.26 359.95,-0.26 Z M373.12,-1.87 Q373.12,-1.21 373.31,-0.87 Q373.50,-0.53 374.09,-0.40 Q374.69,-0.26 375.87,-0.26 Q375.94,-0.26 375.94,-0.13 Q375.94,-0.00 375.87,-0.00 Q375.17,-0.00 374.35,-0.02 Q373.52,-0.04 372.55,-0.04 Q371.85,-0.04 371.19,-0.02 Q370.53,-0.00 370.00,-0.00 Q369.96,-0.00 369.96,-0.13 Q369.96,-0.26 370.00,-0.26 Q370.84,-0.26 371.25,-0.37 Q371.67,-0.48 371.81,-0.81 Q371.96,-1.14 371.96,-1.78 L371.96,-11.97 Q371.96,-12.61 371.81,-12.93 Q371.67,-13.24 371.25,-13.37 Q370.84,-13.49 370.00,-13.49 Q369.96,-13.49 369.96,-13.62 Q369.96,-13.75 370.00,-13.75 Q370.53,-13.75 371.18,-13.72 Q371.83,-13.68 372.53,-13.68 Q373.10,-13.68 373.92,-13.75 Q374.73,-13.82 375.61,-13.82 Q376.82,-13.82 377.81,-13.44 Q378.80,-13.07 379.38,-12.28 Q379.97,-11.48 379.97,-10.21 Q379.97,-9.04 379.53,-8.21 Q379.09,-7.37 378.37,-6.83 Q377.66,-6.29 376.80,-6.03 Q375.94,-5.76 375.10,-5.76 Q374.82,-5.76 374.54,-5.79 Q374.27,-5.81 374.03,-5.87 Q373.94,-5.90 373.97,-6.04 Q374.00,-6.18 374.07,-6.16 Q374.27,-6.12 374.48,-6.09 Q374.69,-6.07 374.86,-6.07 Q375.83,-6.07 376.69,-6.47 Q377.55,-6.86 378.07,-7.69 Q378.60,-8.51 378.60,-9.77 Q378.60,-10.98 378.13,-11.81 Q377.66,-12.65 376.86,-13.09 Q376.07,-13.53 375.10,-13.53 Q374.31,-13.53 373.88,-13.45 Q373.45,-13.38 373.29,-13.05 Q373.12,-12.72 373.12,-11.92 L373.12,-1.87 Z M402.63,-11.92 Q402.63,-12.56 402.49,-12.89 Q402.36,-13.22 401.94,-13.35 Q401.53,-13.49 400.67,-13.49 Q400.60,-13.49 400.60,-13.62 Q400.60,-13.75 400.67,-13.75 Q401.18,-13.75 401.82,-13.72 Q402.47,-13.68 403.22,-13.68 Q403.93,-13.68 404.59,-13.72 Q405.25,-13.75 405.75,-13.75 Q405.82,-13.75 405.82,-13.62 Q405.82,-13.49 405.75,-13.49 Q404.92,-13.49 404.49,-13.37 Q404.06,-13.24 403.91,-12.93 Q403.77,-12.61 403.77,-11.97 L403.77,-1.78 Q403.77,-1.14 403.91,-0.81 Q404.06,-0.48 404.49,-0.37 Q404.92,-0.26 405.75,-0.26 Q405.82,-0.26 405.82,-0.13 Q405.82,-0.00 405.75,-0.00 Q405.25,-0.00 404.59,-0.02 Q403.93,-0.04 403.22,-0.04 Q402.47,-0.04 401.82,-0.02 Q401.18,-0.00 400.67,-0.00 Q400.60,-0.00 400.60,-0.13 Q400.60,-0.26 400.67,-0.26 Q401.53,-0.26 401.94,-0.37 Q402.36,-0.48 402.49,-0.81 Q402.63,-1.14 402.63,-1.78 L402.63,-11.92 Z M393.21,-6.95 L393.21,-7.37 L403.11,-7.37 L403.11,-6.95 L393.21,-6.95 Z M392.68,-1.78 L392.68,-11.97 Q392.68,-12.61 392.54,-12.93 Q392.40,-13.24 391.98,-13.37 Q391.56,-13.49 390.73,-13.49 Q390.68,-13.49 390.68,-13.62 Q390.68,-13.75 390.73,-13.75 Q391.25,-13.75 391.90,-13.72 Q392.55,-13.68 393.26,-13.68 Q394.03,-13.68 394.66,-13.72 Q395.30,-13.75 395.81,-13.75 Q395.85,-13.75 395.85,-13.62 Q395.85,-13.49 395.81,-13.49 Q394.97,-13.49 394.55,-13.35 Q394.14,-13.22 393.99,-12.89 Q393.85,-12.56 393.85,-11.92 L393.85,-1.78 Q393.85,-1.14 393.98,-0.81 Q394.11,-0.48 394.54,-0.37 Q394.97,-0.26 395.81,-0.26 Q395.85,-0.26 395.85,-0.13 Q395.85,-0.00 395.81,-0.00 Q395.28,-0.00 394.65,-0.02 Q394.03,-0.04 393.26,-0.04 Q392.55,-0.04 391.89,-0.02 Q391.23,-0.00 390.70,-0.00 Q390.66,-0.00 390.66,-0.13 Q390.66,-0.26 390.70,-0.26 Q391.54,-0.26 391.97,-0.37 Q392.40,-0.48 392.54,-0.81 Q392.68,-1.14 392.68,-1.78 Z M422.12,-6.38 L425.55,-11.57 Q426.17,-12.54 425.99,-13.01 Q425.82,-13.49 424.85,-13.49 Q424.81,-13.49 424.81,-13.62 Q424.81,-13.75 424.85,-13.75 Q425.42,-13.75 425.95,-13.72 Q426.48,-13.68 427.31,-13.68 Q427.86,-13.68 428.20,-13.72 Q428.55,-13.75 429.03,-13.75 Q429.07,-13.75 429.07,-13.62 Q429.07,-13.49 429.03,-13.49 Q428.48,-13.49 427.95,-13.26 Q427.42,-13.02 426.95,-12.58 Q426.48,-12.14 426.06,-11.51 L422.47,-6.07 L422.12,-6.38 Z M422.14,-5.96 L418.03,-11.92 Q417.46,-12.78 416.91,-13.13 Q416.36,-13.49 415.54,-13.49 Q415.48,-13.49 415.48,-13.62 Q415.48,-13.75 415.54,-13.75 Q415.92,-13.75 416.35,-13.72 Q416.78,-13.68 417.15,-13.68 Q417.74,-13.68 418.26,-13.70 Q418.78,-13.71 419.24,-13.73 Q419.70,-13.75 420.08,-13.75 Q420.12,-13.75 420.12,-13.62 Q420.12,-13.49 420.08,-13.49 Q419.17,-13.49 418.93,-13.29 Q418.69,-13.09 419.04,-12.61 L422.96,-6.97 L422.14,-5.96 Z M421.79,-6.82 L422.96,-7.02 L422.96,-1.78 Q422.96,-1.14 423.09,-0.81 Q423.22,-0.48 423.64,-0.37 Q424.06,-0.26 424.89,-0.26 Q424.96,-0.26 424.96,-0.13 Q424.96,-0.00 424.89,-0.00 Q424.39,-0.00 423.75,-0.02 Q423.11,-0.04 422.36,-0.04 Q421.64,-0.04 420.98,-0.02 Q420.32,-0.00 419.81,-0.00 Q419.75,-0.00 419.75,-0.13 Q419.75,-0.26 419.81,-0.26 Q420.65,-0.26 421.08,-0.37 Q421.51,-0.48 421.65,-0.81 Q421.79,-1.14 421.79,-1.78 L421.79,-6.82 Z" fill="#B0905A"/>
</svg>