<svg xmlns="http://www.w3.org/2000/svg" viewBox="0 0 400 400" width="400" height="400">
<path transform="translate(87.8,251.8)" d="M80.25,-0.00 L75.89,-14.55 L39.75,-14.55 L35.39,-0.00 L1.50,-0.00 L39.14,-103.20 L77.70,-103.20 L115.36,-0.00 L80.25,-0.00 Z M46.64,-37.64 L69.00,-37.64 L58.20,-74.39 L57.61,-74.39 L46.64,-37.64 Z" fill="#1C1A17"/><path transform="translate(170.5,251.8)" d="M99.75,-0.00 L99.75,-37.20 Q99.75,-44.11 100.27,-51.38 Q100.80,-58.64 101.39,-63.59 Q102.00,-68.55 102.14,-69.89 L101.55,-69.89 L82.50,-0.00 L56.55,-0.00 L37.36,-69.75 L36.75,-69.75 Q36.89,-68.39 37.57,-63.52 Q38.25,-58.64 38.84,-51.38 Q39.45,-44.11 39.45,-37.20 L39.45,-0.00 L9.00,-0.00 L9.00,-103.20 L55.80,-103.20 L71.39,-43.64 L72.00,-43.64 L87.45,-103.20 L132.61,-103.20 L132.61,-0.00 L99.75,-0.00 Z" fill="#EFEAE1" stroke="#EFEAE1" stroke-width="9" stroke-linejoin="round"/><path transform="translate(170.5,251.8)" d="M99.75,-0.00 L99.75,-37.20 Q99.75,-44.11 100.27,-51.38 Q100.80,-58.64 101.39,-63.59 Q102.00,-68.55 102.14,-69.89 L101.55,-69.89 L82.50,-0.00 L56.55,-0.00 L37.36,-69.75 L36.75,-69.75 Q36.89,-68.39 37.57,-63.52 Q38.25,-58.64 38.84,-51.38 Q39.45,-44.11 39.45,-37.20 L39.45,-0.00 L9.00,-0.00 L9.00,-103.20 L55.80,-103.20 L71.39,-43.64 L72.00,-43.64 L87.45,-103.20 L132.61,-103.20 L132.61,-0.00 L99.75,-0.00 Z" fill="#1C1A17"/>
</svg>