<svg xmlns="http://www.w3.org/2000/svg" viewBox="0 0 400 400" width="400" height="400">
<g opacity="0.85">
<g transform="translate(57.4,34.0) scale(0.72)">
  <g fill="none" stroke="#FFFFFF" stroke-width="30" stroke-linecap="round">
    <circle cx="130" cy="200" r="68"/>
    <line x1="198" y1="132" x2="198" y2="268"/>
    <path d="M198,166 A34,34 0 0 1 266,166 L266,268"/>
    <path d="M266,166 A34,34 0 0 1 334,166 L334,268"/>
  </g>
</g>
<path transform="translate(119.06,296.00)" d="M0.73,-6.14 Q0.73,-7.99 1.46,-9.42 Q2.20,-10.85 3.46,-11.62 Q4.73,-12.39 6.29,-12.39 Q7.66,-12.39 8.68,-11.84 Q9.70,-11.29 10.32,-10.45 L10.32,-12.19 L13.42,-12.19 L13.42,-0.00 L10.32,-0.00 L10.32,-1.78 Q9.72,-0.92 8.68,-0.36 Q7.63,0.20 6.27,0.20 Q4.73,0.20 3.46,-0.59 Q2.20,-1.39 1.46,-2.83 Q0.73,-4.27 0.73,-6.14 Z M10.32,-6.09 Q10.32,-7.22 9.88,-8.02 Q9.44,-8.82 8.69,-9.25 Q7.94,-9.68 7.08,-9.68 Q6.23,-9.68 5.50,-9.26 Q4.77,-8.84 4.32,-8.04 Q3.87,-7.24 3.87,-6.14 Q3.87,-5.04 4.32,-4.21 Q4.77,-3.39 5.51,-2.95 Q6.25,-2.51 7.08,-2.51 Q7.94,-2.51 8.69,-2.94 Q9.44,-3.37 9.88,-4.17 Q10.32,-4.97 10.32,-6.09 Z M24.19,-12.36 Q26.37,-12.36 27.71,-10.99 Q29.05,-9.61 29.05,-7.15 L29.05,-0.00 L25.97,-0.00 L25.97,-6.73 Q25.97,-8.18 25.24,-8.96 Q24.52,-9.75 23.26,-9.75 Q21.99,-9.75 21.25,-8.96 Q20.51,-8.18 20.51,-6.73 L20.51,-0.00 L17.43,-0.00 L17.43,-12.19 L20.51,-12.19 L20.51,-10.67 Q21.13,-11.46 22.09,-11.91 Q23.04,-12.36 24.19,-12.36 Z M32.18,-6.14 Q32.18,-7.99 32.92,-9.42 Q33.66,-10.85 34.93,-11.62 Q36.21,-12.39 37.77,-12.39 Q38.96,-12.39 40.04,-11.87 Q41.12,-11.35 41.75,-10.49 L41.75,-16.28 L44.88,-16.28 L44.88,-0.00 L41.75,-0.00 L41.75,-1.80 Q41.18,-0.90 40.15,-0.35 Q39.11,0.20 37.75,0.20 Q36.21,0.20 34.93,-0.59 Q33.66,-1.39 32.92,-2.83 Q32.18,-4.27 32.18,-6.14 Z M41.78,-6.09 Q41.78,-7.22 41.34,-8.02 Q40.90,-8.82 40.15,-9.25 Q39.40,-9.68 38.54,-9.68 Q37.68,-9.68 36.96,-9.26 Q36.23,-8.84 35.78,-8.04 Q35.33,-7.24 35.33,-6.14 Q35.33,-5.04 35.78,-4.21 Q36.23,-3.39 36.97,-2.95 Q37.71,-2.51 38.54,-2.51 Q39.40,-2.51 40.15,-2.94 Q40.90,-3.37 41.34,-4.17 Q41.78,-4.97 41.78,-6.09 Z M51.97,-10.30 Q52.56,-11.26 53.52,-11.81 Q54.48,-12.36 55.71,-12.36 L55.71,-9.13 L54.90,-9.13 Q53.44,-9.13 52.71,-8.45 Q51.97,-7.77 51.97,-6.07 L51.97,-0.00 L48.89,-0.00 L48.89,-12.19 L51.97,-12.19 L51.97,-10.30 Z M70.11,-6.36 Q70.11,-5.70 70.02,-5.17 L61.11,-5.17 Q61.22,-3.85 62.04,-3.10 Q62.85,-2.35 64.04,-2.35 Q65.75,-2.35 66.48,-3.83 L69.80,-3.83 Q69.27,-2.07 67.78,-0.94 Q66.28,0.20 64.10,0.20 Q62.34,0.20 60.95,-0.58 Q59.55,-1.36 58.77,-2.79 Q57.99,-4.22 57.99,-6.09 Q57.99,-7.99 58.76,-9.42 Q59.53,-10.85 60.91,-11.62 Q62.30,-12.39 64.10,-12.39 Q65.84,-12.39 67.22,-11.64 Q68.59,-10.89 69.35,-9.52 Q70.11,-8.14 70.11,-6.36 Z M66.92,-7.24 Q66.90,-8.43 66.06,-9.14 Q65.23,-9.86 64.02,-9.86 Q62.87,-9.86 62.09,-9.16 Q61.31,-8.47 61.13,-7.24 L66.92,-7.24 Z M96.09,-12.36 Q98.33,-12.36 99.71,-10.99 Q101.08,-9.61 101.08,-7.15 L101.08,-0.00 L98.00,-0.00 L98.00,-6.73 Q98.00,-8.16 97.28,-8.92 Q96.55,-9.68 95.30,-9.68 Q94.04,-9.68 93.31,-8.92 Q92.57,-8.16 92.57,-6.73 L92.57,-0.00 L89.49,-0.00 L89.49,-6.73 Q89.49,-8.16 88.76,-8.92 Q88.04,-9.68 86.78,-9.68 Q85.51,-9.68 84.77,-8.92 Q84.03,-8.16 84.03,-6.73 L84.03,-0.00 L80.95,-0.00 L80.95,-12.19 L84.03,-12.19 L84.03,-10.71 Q84.63,-11.48 85.56,-11.92 Q86.50,-12.36 87.62,-12.36 Q89.05,-12.36 90.17,-11.76 Q91.29,-11.15 91.91,-10.03 Q92.50,-11.09 93.64,-11.73 Q94.77,-12.36 96.09,-12.36 Z M116.34,-6.36 Q116.34,-5.70 116.25,-5.17 L107.34,-5.17 Q107.45,-3.85 108.27,-3.10 Q109.08,-2.35 110.27,-2.35 Q111.98,-2.35 112.71,-3.83 L116.03,-3.83 Q115.50,-2.07 114.01,-0.94 Q112.51,0.20 110.33,0.20 Q108.57,0.20 107.18,-0.58 Q105.78,-1.36 105.00,-2.79 Q104.22,-4.22 104.22,-6.09 Q104.22,-7.99 104.99,-9.42 Q105.76,-10.85 107.14,-11.62 Q108.53,-12.39 110.33,-12.39 Q112.07,-12.39 113.45,-11.64 Q114.82,-10.89 115.58,-9.52 Q116.34,-8.14 116.34,-6.36 Z M113.15,-7.24 Q113.13,-8.43 112.29,-9.14 Q111.46,-9.86 110.25,-9.86 Q109.10,-9.86 108.32,-9.16 Q107.54,-8.47 107.36,-7.24 L113.15,-7.24 Z M122.66,-16.28 L122.66,-0.00 L119.58,-0.00 L119.58,-16.28 L122.66,-16.28 Z M132.11,0.20 Q130.35,0.20 128.94,-0.58 Q127.54,-1.36 126.73,-2.79 Q125.93,-4.22 125.93,-6.09 Q125.93,-7.96 126.75,-9.39 Q127.58,-10.82 129.01,-11.61 Q130.44,-12.39 132.20,-12.39 Q133.96,-12.39 135.39,-11.61 Q136.82,-10.82 137.64,-9.39 Q138.47,-7.96 138.47,-6.09 Q138.47,-4.22 137.62,-2.79 Q136.78,-1.36 135.33,-0.58 Q133.89,0.20 132.11,0.20 Z M132.11,-2.49 Q132.95,-2.49 133.68,-2.89 Q134.42,-3.30 134.86,-4.11 Q135.30,-4.93 135.30,-6.09 Q135.30,-7.83 134.39,-8.77 Q133.48,-9.70 132.16,-9.70 Q130.84,-9.70 129.94,-8.77 Q129.05,-7.83 129.05,-6.09 Q129.05,-4.36 129.92,-3.42 Q130.79,-2.49 132.11,-2.49 Z M148.49,-12.36 Q150.67,-12.36 152.01,-10.99 Q153.35,-9.61 153.35,-7.15 L153.35,-0.00 L150.27,-0.00 L150.27,-6.73 Q150.27,-8.18 149.54,-8.96 Q148.82,-9.75 147.57,-9.75 Q146.29,-9.75 145.55,-8.96 Q144.82,-8.18 144.82,-6.73 L144.82,-0.00 L141.74,-0.00 L141.74,-12.19 L144.82,-12.19 L144.82,-10.67 Q145.43,-11.46 146.39,-11.91 Q147.35,-12.36 148.49,-12.36 Z M158.84,-13.64 Q158.02,-13.64 157.48,-14.16 Q156.95,-14.67 156.95,-15.44 Q156.95,-16.21 157.48,-16.73 Q158.02,-17.25 158.84,-17.25 Q159.65,-17.25 160.19,-16.73 Q160.73,-16.21 160.73,-15.44 Q160.73,-14.67 160.19,-14.16 Q159.65,-13.64 158.84,-13.64 Z M160.36,-12.19 L160.36,-0.00 L157.28,-0.00 L157.28,-12.19 L160.36,-12.19 Z" fill="#FFFFFF"/>
</g>
</svg>