<svg xmlns="http://www.w3.org/2000/svg" viewBox="0 0 400 400" width="400" height="400">
<g opacity="0.92">
<path transform="translate(134.3,201.1)" d="M51.36,-0.00 L48.57,-9.31 L25.44,-9.31 L22.65,-0.00 L0.96,-0.00 L25.05,-66.05 L49.73,-66.05 L73.83,-0.00 L51.36,-0.00 Z M29.85,-24.09 L44.16,-24.09 L37.24,-47.61 L36.87,-47.61 L29.85,-24.09 Z" fill="#FFFFFF"/><path transform="translate(175.0,201.1)" d="M63.84,-0.00 L63.84,-23.80 Q63.84,-28.23 64.17,-32.88 Q64.52,-37.53 64.89,-40.70 Q65.28,-43.88 65.37,-44.73 L65.00,-44.73 L52.80,-0.00 L36.20,-0.00 L23.91,-44.64 L23.52,-44.64 Q23.61,-43.77 24.04,-40.65 Q24.48,-37.53 24.86,-32.88 Q25.24,-28.23 25.24,-23.80 L25.24,-0.00 L5.76,-0.00 L5.76,-66.05 L35.71,-66.05 L45.69,-27.93 L46.08,-27.93 L55.96,-66.05 L84.87,-66.05 L84.87,-0.00 L63.84,-0.00 Z" fill="#FFFFFF"/>
<path transform="translate(105.78,250.00)" d="M8.40,-2.41 L3.45,-2.41 L2.60,-0.00 L0.58,-0.00 L4.81,-11.83 L7.06,-11.83 L11.29,-0.00 L9.25,-0.00 L8.40,-2.41 Z M7.85,-4.00 L5.93,-9.49 L4.00,-4.00 L7.85,-4.00 Z M28.83,-0.00 L26.89,-0.00 L21.06,-8.82 L21.06,-0.00 L19.12,-0.00 L19.12,-11.83 L21.06,-11.83 L26.89,-3.03 L26.89,-11.83 L28.83,-11.83 L28.83,-0.00 Z M41.24,-11.82 Q43.13,-11.82 44.54,-11.09 Q45.97,-10.37 46.74,-9.02 Q47.51,-7.67 47.51,-5.87 Q47.51,-4.06 46.74,-2.74 Q45.97,-1.41 44.54,-0.70 Q43.13,-0.00 41.24,-0.00 L37.38,-0.00 L37.38,-11.82 L41.24,-11.82 Z M41.24,-1.58 Q43.31,-1.58 44.42,-2.70 Q45.52,-3.83 45.52,-5.87 Q45.52,-7.92 44.42,-9.08 Q43.31,-10.23 41.24,-10.23 L39.32,-10.23 L39.32,-1.58 L41.24,-1.58 Z M61.57,-0.00 L58.85,-4.73 L57.37,-4.73 L57.37,-0.00 L55.43,-0.00 L55.43,-11.82 L59.51,-11.82 Q60.87,-11.82 61.82,-11.34 Q62.76,-10.86 63.23,-10.06 Q63.70,-9.27 63.70,-8.28 Q63.70,-7.12 63.02,-6.18 Q62.35,-5.24 60.96,-4.90 L63.88,-0.00 L61.57,-0.00 Z M57.37,-6.27 L59.51,-6.27 Q60.60,-6.27 61.16,-6.82 Q61.71,-7.36 61.71,-8.28 Q61.71,-9.20 61.16,-9.71 Q60.62,-10.23 59.51,-10.23 L57.37,-10.23 L57.37,-6.27 Z M74.12,-10.25 L74.12,-6.78 L78.20,-6.78 L78.20,-5.20 L74.12,-5.20 L74.12,-1.58 L78.71,-1.58 L78.71,-0.00 L72.18,-0.00 L72.18,-11.83 L78.71,-11.83 L78.71,-10.25 L74.12,-10.25 Z M110.63,-11.82 L110.63,-0.00 L108.69,-0.00 L108.69,-8.09 L105.09,-0.00 L103.75,-0.00 L100.13,-8.09 L100.13,-0.00 L98.19,-0.00 L98.19,-11.82 L100.28,-11.82 L104.43,-2.55 L108.56,-11.82 L110.63,-11.82 Z M121.12,-10.25 L121.12,-6.78 L125.20,-6.78 L125.20,-5.20 L121.12,-5.20 L121.12,-1.58 L125.71,-1.58 L125.71,-0.00 L119.18,-0.00 L119.18,-11.83 L125.71,-11.83 L125.71,-10.25 L121.12,-10.25 Z M136.03,-1.56 L140.03,-1.56 L140.03,-0.00 L134.09,-0.00 L134.09,-11.82 L136.03,-11.82 L136.03,-1.56 Z M153.03,0.12 Q151.38,0.12 149.99,-0.65 Q148.61,-1.43 147.80,-2.81 Q147.00,-4.20 147.00,-5.93 Q147.00,-7.67 147.80,-9.04 Q148.61,-10.42 149.99,-11.19 Q151.38,-11.97 153.03,-11.97 Q154.70,-11.97 156.08,-11.19 Q157.47,-10.42 158.27,-9.04 Q159.07,-7.67 159.07,-5.93 Q159.07,-4.20 158.27,-2.81 Q157.47,-1.43 156.08,-0.65 Q154.70,0.12 153.03,0.12 Z M153.03,-1.56 Q154.20,-1.56 155.12,-2.10 Q156.04,-2.64 156.56,-3.63 Q157.08,-4.62 157.08,-5.93 Q157.08,-7.24 156.56,-8.23 Q156.04,-9.21 155.12,-9.74 Q154.20,-10.27 153.03,-10.27 Q151.86,-10.27 150.94,-9.74 Q150.02,-9.21 149.50,-8.23 Q148.98,-7.24 148.98,-5.93 Q148.98,-4.62 149.50,-3.63 Q150.02,-2.64 150.94,-2.10 Q151.86,-1.56 153.03,-1.56 Z M176.68,-0.00 L174.74,-0.00 L168.91,-8.82 L168.91,-0.00 L166.97,-0.00 L166.97,-11.83 L168.91,-11.83 L174.74,-3.03 L174.74,-11.83 L176.68,-11.83 L176.68,-0.00 Z M187.16,-11.82 L187.16,-0.00 L185.23,-0.00 L185.23,-11.82 L187.16,-11.82 Z" fill="#FFFFFF"/>
</g>
</svg>